
<svg xmlns="http://www.w3.org/2000/svg" xmlns:xlink="http://www.w3.org/1999/xlink" width="296" height="167" viewBox="0 0 296 167">
  <defs>
    <style>
      .cls-1, .cls-4, .cls-8 {
        fill: none;
      }

      .cls-2 {
        fill: #fdfdfd;
      }

      .cls-3 {
        clip-path: url(#clip-path);
      }

      .cls-4 {
        stroke: #e4e5e6;
        stroke-width: 0.5px;
        stroke-dasharray: 4;
      }

      .cls-5 {
        clip-path: url(#clip-path-2);
      }

      .cls-6 {
        fill: #9f9f9f;
        font-size: 12px;
      }

      .cls-6, .cls-7 {
        font-family: MicrosoftYaHei, Microsoft YaHei;
      }

      .cls-7 {
        fill: #b4bcc7;
        font-size: 11px;
      }

      .cls-8 {
        stroke: #dbe0ea;
        stroke-linejoin: round;
        stroke-width: 2px;
      }

      .cls-9 {
        fill: #125ffd;
      }

      .cls-10 {
        fill: #3ce4da;
      }
    </style>
    <clipPath id="clip-path">
      <rect class="cls-1" width="214.551" height="97.425"/>
    </clipPath>
    <clipPath id="clip-path-2">
      <rect class="cls-1" width="14" height="111"/>
    </clipPath>
  </defs>
  <g id="组_14839" data-name="组 14839" transform="translate(-125 -161)">
    <g id="组_14642" data-name="组 14642">
      <path id="矩形_7134" data-name="矩形 7134" class="cls-2" d="M12,0H284a12,12,0,0,1,12,12V167a0,0,0,0,1,0,0H0a0,0,0,0,1,0,0V12A12,12,0,0,1,12,0Z" transform="translate(125 161)"/>
      <g id="组_11617" data-name="组 11617" transform="translate(-1819.027 -670.141)">
        <g id="重复网格_20" data-name="重复网格 20" class="cls-3" transform="translate(1990.819 863.428)">
          <g transform="translate(-443.179 -828.164)">
            <path id="路径_16301" data-name="路径 16301" class="cls-4" d="M379.179,785.664H634.225" transform="translate(64 43)"/>
          </g>
          <g transform="translate(-443.179 -796.164)">
            <path id="路径_16301-2" data-name="路径 16301" class="cls-4" d="M379.179,785.664H634.225" transform="translate(64 43)"/>
          </g>
          <g transform="translate(-443.179 -764.164)">
            <path id="路径_16301-3" data-name="路径 16301" class="cls-4" d="M379.179,785.664H634.225" transform="translate(64 43)"/>
          </g>
          <g transform="translate(-443.179 -732.164)">
            <path id="路径_16301-4" data-name="路径 16301" class="cls-4" d="M379.179,785.664H634.225" transform="translate(64 43)"/>
          </g>
        </g>
        <g id="重复网格_21" data-name="重复网格 21" class="cls-5" transform="translate(1968.685 855.141)">
          <g transform="translate(-443 -599)">
            <text id="_30" data-name="30" class="cls-6" transform="translate(457 612)"><tspan x="-14.074" y="0">30</tspan></text>
          </g>
          <g transform="translate(-443 -567)">
            <text id="_20" data-name="20" class="cls-6" transform="translate(457 612)"><tspan x="-14.074" y="0">20</tspan></text>
          </g>
          <g transform="translate(-443 -535)">
            <text id="_10" data-name="10" class="cls-6" transform="translate(457 612)"><tspan x="-14.074" y="0">10</tspan></text>
          </g>
          <g transform="translate(-443 -503)">
            <text id="_0" data-name="0" class="cls-6" transform="translate(457 612)"><tspan x="-7.037" y="0">0</tspan></text>
          </g>
        </g>
        <text id="A" class="cls-7" transform="translate(2027.027 977.142)"><tspan x="-7.74" y="0">A</tspan></text>
        <text id="B" class="cls-7" transform="translate(2063.027 977.142)"><tspan x="-6.902" y="0">B</tspan></text>
        <text id="C" class="cls-7" transform="translate(2099.027 977.142)"><tspan x="-7.358" y="0">C</tspan></text>
        <text id="D" class="cls-7" transform="translate(2135.027 977.142)"><tspan x="-8.379" y="0">D</tspan></text>
        <text id="E" class="cls-7" transform="translate(2171.027 977.142)"><tspan x="-6.048" y="0">E</tspan></text>
      </g>
    </g>
    <path id="路径_29448" data-name="路径 29448" class="cls-8" d="M-9503.033,11721.405h79.617" transform="translate(11927.406 9708.225) rotate(90)"/>
    <path id="路径_29462" data-name="路径 29462" class="cls-8" d="M-9503.033,11721.405h67.1" transform="translate(12069.406 9710.742) rotate(90)"/>
    <path id="路径_29452" data-name="路径 29452" class="cls-8" d="M-9503.033,11721.405h79.617" transform="translate(11962.406 9699.225) rotate(90)"/>
    <path id="路径_29454" data-name="路径 29454" class="cls-8" d="M-9503.033,11721.405h61.561" transform="translate(11998.406 9719.16) rotate(90)"/>
    <path id="路径_29457" data-name="路径 29457" class="cls-8" d="M-9503.032,11721.405h71.808" transform="translate(12033.406 9714.035) rotate(90)"/>
    <path id="路径_29449" data-name="路径 29449" class="cls-8" d="M-9503.034,11721.405h12" transform="translate(-9291.034 11926.596) rotate(180)"/>
    <path id="路径_29460" data-name="路径 29460" class="cls-8" d="M-9503.034,11721.405h12" transform="translate(-9149.034 11929.113) rotate(180)"/>
    <path id="路径_29451" data-name="路径 29451" class="cls-8" d="M-9503.034,11721.405h12" transform="translate(-9256.034 11917.596) rotate(180)"/>
    <path id="路径_29455" data-name="路径 29455" class="cls-8" d="M-9503.034,11721.405h12" transform="translate(-9220.034 11937.531) rotate(180)"/>
    <path id="路径_29458" data-name="路径 29458" class="cls-8" d="M-9503.034,11721.405h12" transform="translate(-9185.034 11932.406) rotate(180)"/>
    <path id="路径_29450" data-name="路径 29450" class="cls-8" d="M-9503.034,11721.405h12" transform="translate(-9291.034 12006.215) rotate(180)"/>
    <path id="路径_29461" data-name="路径 29461" class="cls-8" d="M-9503.034,11721.405h12" transform="translate(-9149.034 11996.215) rotate(180)"/>
    <path id="路径_29453" data-name="路径 29453" class="cls-8" d="M-9503.034,11721.405h12" transform="translate(-9256.034 11997.215) rotate(180)"/>
    <path id="路径_29456" data-name="路径 29456" class="cls-8" d="M-9503.034,11721.405h12" transform="translate(-9220.034 11999.094) rotate(180)"/>
    <path id="路径_29459" data-name="路径 29459" class="cls-8" d="M-9503.034,11721.405h12" transform="translate(-9185.034 12004.215) rotate(180)"/>
    <g id="组_11660" data-name="组 11660" transform="translate(-5393 -364.064)">
      <rect id="矩形_6162" data-name="矩形 6162" class="cls-9" width="12" height="47" rx="2" transform="translate(5593 586.064)"/>
      <path id="矩形_6166" data-name="矩形 6166" class="cls-10" d="M0,0H12a0,0,0,0,1,0,0V32a2,2,0,0,1-2,2H2a2,2,0,0,1-2-2V0A0,0,0,0,1,0,0Z" transform="translate(5593 599.064)"/>
    </g>
    <g id="组_14826" data-name="组 14826" transform="translate(-5251 -366.529)">
      <rect id="矩形_6162-2" data-name="矩形 6162" class="cls-9" width="12" height="42" rx="2" transform="translate(5593 585.529)"/>
      <path id="矩形_6166-2" data-name="矩形 6166" class="cls-10" d="M0,0H12a0,0,0,0,1,0,0V21a2,2,0,0,1-2,2H2a2,2,0,0,1-2-2V0A0,0,0,0,1,0,0Z" transform="translate(5593 604.529)"/>
    </g>
    <g id="组_14823" data-name="组 14823" transform="translate(-5358 -380.809)">
      <rect id="矩形_6162-3" data-name="矩形 6162" class="cls-9" width="12" height="49" rx="2" transform="translate(5593 585.809)"/>
      <path id="矩形_6166-3" data-name="矩形 6166" class="cls-10" d="M0,0H12a0,0,0,0,1,0,0V32a2,2,0,0,1-2,2H2a2,2,0,0,1-2-2V0A0,0,0,0,1,0,0Z" transform="translate(5593 600.809)"/>
    </g>
    <g id="组_14824" data-name="组 14824" transform="translate(-5322 -358.5)">
      <rect id="矩形_6162-4" data-name="矩形 6162" class="cls-9" width="12" height="36" rx="2" transform="translate(5593 586)"/>
      <path id="矩形_6166-4" data-name="矩形 6166" class="cls-10" d="M0,0H12a0,0,0,0,1,0,0V16a2,2,0,0,1-2,2H2a2,2,0,0,1-2-2V0A0,0,0,0,1,0,0Z" transform="translate(5593 604)"/>
    </g>
    <g id="组_14825" data-name="组 14825" transform="translate(-5287 -363.999)">
      <rect id="矩形_6162-5" data-name="矩形 6162" class="cls-9" width="12" height="36" rx="2" transform="translate(5593 586)"/>
      <path id="矩形_6166-5" data-name="矩形 6166" class="cls-10" d="M0,0H12a0,0,0,0,1,0,0V16a2,2,0,0,1-2,2H2a2,2,0,0,1-2-2V0A0,0,0,0,1,0,0Z" transform="translate(5593 604)"/>
    </g>
  </g>
</svg>