
<svg xmlns="http://www.w3.org/2000/svg" xmlns:xlink="http://www.w3.org/1999/xlink" width="296" height="167" viewBox="0 0 296 167">
  <defs>
    <clipPath id="clip-path">
      <rect width="214.551" height="97.425" fill="none"/>
    </clipPath>
    <clipPath id="clip-path-2">
      <rect width="14" height="111" fill="none"/>
    </clipPath>
  </defs>
  <g id="组_14643" data-name="组 14643" transform="translate(-125 -161)">
    <path id="矩形_7134" data-name="矩形 7134" d="M12,0H284a12,12,0,0,1,12,12V167a0,0,0,0,1,0,0H0a0,0,0,0,1,0,0V12A12,12,0,0,1,12,0Z" transform="translate(125 161)" fill="#fdfdfd"/>
    <g id="组_11617" data-name="组 11617" transform="translate(-1819.027 -670.141)">
      <g id="重复网格_20" data-name="重复网格 20" transform="translate(1990.819 863.428)" clip-path="url(#clip-path)">
        <g transform="translate(-443.179 -828.164)">
          <path id="路径_16301" data-name="路径 16301" d="M379.179,785.664H634.225" transform="translate(64 43)" fill="none" stroke="#e4e5e6" stroke-width="0.5" stroke-dasharray="4"/>
        </g>
        <g transform="translate(-443.179 -796.164)">
          <path id="路径_16301-2" data-name="路径 16301" d="M379.179,785.664H634.225" transform="translate(64 43)" fill="none" stroke="#e4e5e6" stroke-width="0.5" stroke-dasharray="4"/>
        </g>
        <g transform="translate(-443.179 -764.164)">
          <path id="路径_16301-3" data-name="路径 16301" d="M379.179,785.664H634.225" transform="translate(64 43)" fill="none" stroke="#e4e5e6" stroke-width="0.5" stroke-dasharray="4"/>
        </g>
        <g transform="translate(-443.179 -732.164)">
          <path id="路径_16301-4" data-name="路径 16301" d="M379.179,785.664H634.225" transform="translate(64 43)" fill="none" stroke="#e4e5e6" stroke-width="0.5" stroke-dasharray="4"/>
        </g>
      </g>
      <g id="重复网格_21" data-name="重复网格 21" transform="translate(1968.685 855.141)" clip-path="url(#clip-path-2)">
        <g transform="translate(-443 -599)">
          <text id="_30" data-name="30" transform="translate(457 612)" fill="#9f9f9f" font-size="12" font-family="MicrosoftYaHei, Microsoft YaHei"><tspan x="-14.074" y="0">30</tspan></text>
        </g>
        <g transform="translate(-443 -567)">
          <text id="_20" data-name="20" transform="translate(457 612)" fill="#9f9f9f" font-size="12" font-family="MicrosoftYaHei, Microsoft YaHei"><tspan x="-14.074" y="0">20</tspan></text>
        </g>
        <g transform="translate(-443 -535)">
          <text id="_10" data-name="10" transform="translate(457 612)" fill="#9f9f9f" font-size="12" font-family="MicrosoftYaHei, Microsoft YaHei"><tspan x="-14.074" y="0">10</tspan></text>
        </g>
        <g transform="translate(-443 -503)">
          <text id="_0" data-name="0" transform="translate(457 612)" fill="#9f9f9f" font-size="12" font-family="MicrosoftYaHei, Microsoft YaHei"><tspan x="-7.037" y="0">0</tspan></text>
        </g>
      </g>
      <text id="_21" data-name="21" transform="translate(2027.027 977.142)" fill="#b4bcc7" font-size="11" font-family="MicrosoftYaHei, Microsoft YaHei"><tspan x="-12.901" y="0">21</tspan></text>
      <text id="_22" data-name="22" transform="translate(2063.027 977.142)" fill="#b4bcc7" font-size="11" font-family="MicrosoftYaHei, Microsoft YaHei"><tspan x="-12.901" y="0">22</tspan></text>
      <text id="_23" data-name="23" transform="translate(2099.027 977.142)" fill="#b4bcc7" font-size="11" font-family="MicrosoftYaHei, Microsoft YaHei"><tspan x="-12.901" y="0">23</tspan></text>
      <text id="_24" data-name="24" transform="translate(2135.027 977.142)" fill="#b4bcc7" font-size="11" font-family="MicrosoftYaHei, Microsoft YaHei"><tspan x="-12.901" y="0">24</tspan></text>
      <text id="_25" data-name="25" transform="translate(2171.027 977.142)" fill="#b4bcc7" font-size="11" font-family="MicrosoftYaHei, Microsoft YaHei"><tspan x="-12.901" y="0">25</tspan></text>
    </g>
    <circle id="椭圆_1437" data-name="椭圆 1437" cx="14" cy="14" r="14" transform="translate(330.762 192.313) rotate(39)" fill="rgba(46,94,243,0.9)"/>
    <circle id="椭圆_1439" data-name="椭圆 1439" cx="7.5" cy="7.5" r="7.5" transform="translate(266 252)" fill="rgba(46,94,243,0.9)"/>
    <circle id="椭圆_1468" data-name="椭圆 1468" cx="9" cy="9" r="9" transform="translate(289 232)" fill="rgba(60,228,218,0.8)"/>
    <circle id="椭圆_1467" data-name="椭圆 1467" cx="4" cy="4" r="4" transform="translate(193 281)" fill="rgba(46,94,243,0.9)"/>
    <circle id="椭圆_1438" data-name="椭圆 1438" cx="9" cy="9" r="9" transform="translate(318.805 207.078) rotate(39)" fill="rgba(60,228,218,0.8)" opacity="0.798"/>
    <circle id="椭圆_1440" data-name="椭圆 1440" cx="4" cy="4" r="4" transform="translate(189 279)" fill="rgba(60,228,218,0.8)"/>
    <circle id="椭圆_1469" data-name="椭圆 1469" cx="6" cy="6" r="6" transform="translate(230 262)" fill="#426df4"/>
    <circle id="椭圆_1508" data-name="椭圆 1508" cx="7" cy="7" r="7" transform="translate(232 238)" fill="rgba(60,228,218,0.8)"/>
    <circle id="椭圆_1444" data-name="椭圆 1444" cx="5" cy="5" r="5" transform="translate(208 269)" fill="rgba(60,228,218,0.8)"/>
  </g>
</svg>