
<svg xmlns="http://www.w3.org/2000/svg" xmlns:xlink="http://www.w3.org/1999/xlink" width="296" height="167" viewBox="0 0 296 167">
  <defs>
    <clipPath id="clip-path">
      <rect width="215.308" height="97.425" fill="none"/>
    </clipPath>
    <clipPath id="clip-path-2">
      <rect width="14" height="111" fill="none"/>
    </clipPath>
  </defs>
  <g id="组_14699" data-name="组 14699" transform="translate(-4023 -779)">
    <g id="组_13392" data-name="组 13392" transform="translate(3934 618)">
      <path id="矩形_7134" data-name="矩形 7134" d="M12,0H284a12,12,0,0,1,12,12V167a0,0,0,0,1,0,0H0a0,0,0,0,1,0,0V12A12,12,0,0,1,12,0Z" transform="translate(89 161)" fill="#fdfdfd"/>
    </g>
    <g id="组_12531" data-name="组 12531" transform="translate(3933.622 618)">
      <g id="组_11097" data-name="组 11097" transform="translate(113.658 185)">
        <g id="重复网格_20" data-name="重复网格 20" transform="translate(22.134 8.287)" clip-path="url(#clip-path)">
          <g transform="translate(-443.179 -828.164)">
            <path id="路径_16301" data-name="路径 16301" d="M379.179,785.664H634.225" transform="translate(64 43)" fill="none" stroke="#e4e5e6" stroke-width="0.5" stroke-dasharray="4"/>
          </g>
          <g transform="translate(-443.179 -796.164)">
            <path id="路径_16301-2" data-name="路径 16301" d="M379.179,785.664H634.225" transform="translate(64 43)" fill="none" stroke="#e4e5e6" stroke-width="0.5" stroke-dasharray="4"/>
          </g>
          <g transform="translate(-443.179 -764.164)">
            <path id="路径_16301-3" data-name="路径 16301" d="M379.179,785.664H634.225" transform="translate(64 43)" fill="none" stroke="#e4e5e6" stroke-width="0.5" stroke-dasharray="4"/>
          </g>
          <g transform="translate(-443.179 -732.164)">
            <path id="路径_16301-4" data-name="路径 16301" d="M379.179,785.664H634.225" transform="translate(64 43)" fill="none" stroke="#e4e5e6" stroke-width="0.5" stroke-dasharray="4"/>
          </g>
        </g>
        <g id="重复网格_21" data-name="重复网格 21" clip-path="url(#clip-path-2)">
          <g transform="translate(-443 -599)">
            <text id="_30" data-name="30" transform="translate(457 612)" fill="#9f9f9f" font-size="12" font-family="MicrosoftYaHei, Microsoft YaHei"><tspan x="-14.074" y="0">30</tspan></text>
          </g>
          <g transform="translate(-443 -567)">
            <text id="_20" data-name="20" transform="translate(457 612)" fill="#9f9f9f" font-size="12" font-family="MicrosoftYaHei, Microsoft YaHei"><tspan x="-14.074" y="0">20</tspan></text>
          </g>
          <g transform="translate(-443 -535)">
            <text id="_10" data-name="10" transform="translate(457 612)" fill="#9f9f9f" font-size="12" font-family="MicrosoftYaHei, Microsoft YaHei"><tspan x="-14.074" y="0">10</tspan></text>
          </g>
          <g transform="translate(-443 -503)">
            <text id="_0" data-name="0" transform="translate(457 612)" fill="#9f9f9f" font-size="12" font-family="MicrosoftYaHei, Microsoft YaHei"><tspan x="-7.037" y="0">0</tspan></text>
          </g>
        </g>
        <text id="_2-21" data-name="2-21" transform="translate(60.471 122.001)" fill="#b4bcc7" font-size="11" font-family="MicrosoftYaHei, Microsoft YaHei"><tspan x="-24.111" y="0">2-21</tspan></text>
        <text id="_2-22" data-name="2-22" transform="translate(112.656 122.001)" fill="#b4bcc7" font-size="11" font-family="MicrosoftYaHei, Microsoft YaHei"><tspan x="-24.111" y="0">2-22</tspan></text>
        <text id="_2-23" data-name="2-23" transform="translate(164.841 122.001)" fill="#b4bcc7" font-size="11" font-family="MicrosoftYaHei, Microsoft YaHei"><tspan x="-24.111" y="0">2-23</tspan></text>
        <text id="_2-24" data-name="2-24" transform="translate(217.098 122.001)" fill="#b4bcc7" font-size="11" font-family="MicrosoftYaHei, Microsoft YaHei"><tspan x="-24.111" y="0">2-24</tspan></text>
      </g>
      <path id="矩形_6034" data-name="矩形 6034" d="M6,0H6a6,6,0,0,1,6,6V71a0,0,0,0,1,0,0H0a0,0,0,0,1,0,0V6A6,6,0,0,1,6,0Z" transform="translate(155.175 219)" fill="#2e5ef3"/>
      <path id="矩形_4003" data-name="矩形 4003" d="M6,0H6a6,6,0,0,1,6,6V72a0,0,0,0,1,0,0H0a0,0,0,0,1,0,0V6A6,6,0,0,1,6,0Z" transform="translate(311.593 218)" fill="#fba675"/>
      <path id="矩形_6032" data-name="矩形 6032" d="M6,0H6a6,6,0,0,1,6,6V93a0,0,0,0,1,0,0H0a0,0,0,0,1,0,0V6A6,6,0,0,1,6,0Z" transform="translate(259.453 197)" fill="#fd7a82"/>
      <path id="矩形_6033" data-name="矩形 6033" d="M6,0H6a6,6,0,0,1,6,6V56a0,0,0,0,1,0,0H0a0,0,0,0,1,0,0V6A6,6,0,0,1,6,0Z" transform="translate(207.314 234)" fill="#3be4df"/>
    </g>
  </g>
</svg>