<svg xmlns="http://www.w3.org/2000/svg" width="296" height="167" viewBox="0 0 296 167">
  <g id="组_13803" data-name="组 13803" transform="translate(-3899 -161)">
    <path id="矩形_7134" data-name="矩形 7134" d="M12,0H284a12,12,0,0,1,12,12V167a0,0,0,0,1,0,0H0a0,0,0,0,1,0,0V12A12,12,0,0,1,12,0Z" transform="translate(3899 161)" fill="#fdfdfd"/>
    <g id="组_11823" data-name="组 11823" transform="translate(3979.156 175.182)">
      <path id="路径_24501" data-name="路径 24501" d="M412.406,442.423a67.2,67.2,0,0,1-76.295,20.935L359.883,400.5Z" transform="translate(-282.267 -336.207)" fill="#3ce4da" stroke="#fff" stroke-width="1"/>
      <path id="路径_24500" data-name="路径 24500" d="M51.862,137.511A77.616,77.616,0,0,1,33.9.159L77.616,64.293Z" transform="translate(0)" fill="#2e5ef3" stroke="#fff" stroke-width="1"/>
      <path id="路径_24502" data-name="路径 24502" d="M528.482,139.98a48.38,48.38,0,0,0-27.734-24.534L485,161.191Z" transform="translate(-407.304 -96.818)" fill="#fc9759" stroke="#fff" stroke-width="1"/>
      <path id="路径_24503" data-name="路径 24503" d="M455.479,138.316a42.453,42.453,0,0,0-22.1-1.5l8.27,41.639Z" transform="translate(-363.953 -114.079)" fill="#efdb50" stroke="#fff" stroke-width="1"/>
      <path id="路径_24504" data-name="路径 24504" d="M367.4,173.475a37.085,37.085,0,0,0-13.7,5.77l20.953,30.6Z" transform="translate(-297.042 -145.551)" fill="#85e65a" stroke="#fff" stroke-width="1"/>
      <path id="路径_24505" data-name="路径 24505" d="M530.324,296.07a57.991,57.991,0,0,0,6.043-63.094L485,259.893Z" transform="translate(-407.304 -195.52)" fill="#ff5c63" stroke="#fff" stroke-width="1"/>
    </g>
  </g>
</svg>