
<svg xmlns="http://www.w3.org/2000/svg" xmlns:xlink="http://www.w3.org/1999/xlink" width="296" height="167" viewBox="0 0 296 167">
  <defs>
    <clipPath id="clip-path">
      <rect width="214.551" height="97.425" fill="none"/>
    </clipPath>
    <clipPath id="clip-path-2">
      <rect width="14" height="111" fill="none"/>
    </clipPath>
  </defs>
  <g id="组_13792" data-name="组 13792" transform="translate(-89 -161)">
    <path id="矩形_7134" data-name="矩形 7134" d="M12,0H284a12,12,0,0,1,12,12V167a0,0,0,0,1,0,0H0a0,0,0,0,1,0,0V12A12,12,0,0,1,12,0Z" transform="translate(89 161)" fill="#fdfdfd"/>
    <g id="重复网格_20" data-name="重复网格 20" transform="translate(135.792 193.287)" clip-path="url(#clip-path)">
      <g transform="translate(-443.179 -828.164)">
        <path id="路径_16301" data-name="路径 16301" d="M379.179,785.664H634.225" transform="translate(64 43)" fill="none" stroke="#e4e5e6" stroke-width="0.5" stroke-dasharray="4"/>
      </g>
      <g transform="translate(-443.179 -796.164)">
        <path id="路径_16301-2" data-name="路径 16301" d="M379.179,785.664H634.225" transform="translate(64 43)" fill="none" stroke="#e4e5e6" stroke-width="0.5" stroke-dasharray="4"/>
      </g>
      <g transform="translate(-443.179 -764.164)">
        <path id="路径_16301-3" data-name="路径 16301" d="M379.179,785.664H634.225" transform="translate(64 43)" fill="none" stroke="#e4e5e6" stroke-width="0.5" stroke-dasharray="4"/>
      </g>
      <g transform="translate(-443.179 -732.164)">
        <path id="路径_16301-4" data-name="路径 16301" d="M379.179,785.664H634.225" transform="translate(64 43)" fill="none" stroke="#e4e5e6" stroke-width="0.5" stroke-dasharray="4"/>
      </g>
    </g>
    <g id="重复网格_21" data-name="重复网格 21" transform="translate(113.658 185)" clip-path="url(#clip-path-2)">
      <g transform="translate(-443 -599)">
        <text id="_30" data-name="30" transform="translate(457 612)" fill="#9f9f9f" font-size="12" font-family="MicrosoftYaHei, Microsoft YaHei"><tspan x="-14.074" y="0">30</tspan></text>
      </g>
      <g transform="translate(-443 -567)">
        <text id="_20" data-name="20" transform="translate(457 612)" fill="#9f9f9f" font-size="12" font-family="MicrosoftYaHei, Microsoft YaHei"><tspan x="-14.074" y="0">20</tspan></text>
      </g>
      <g transform="translate(-443 -535)">
        <text id="_10" data-name="10" transform="translate(457 612)" fill="#9f9f9f" font-size="12" font-family="MicrosoftYaHei, Microsoft YaHei"><tspan x="-14.074" y="0">10</tspan></text>
      </g>
      <g transform="translate(-443 -503)">
        <text id="_0" data-name="0" transform="translate(457 612)" fill="#9f9f9f" font-size="12" font-family="MicrosoftYaHei, Microsoft YaHei"><tspan x="-7.037" y="0">0</tspan></text>
      </g>
    </g>
    <text id="_2-21" data-name="2-21" transform="translate(169 307)" fill="#b4bcc7" font-size="11" font-family="MicrosoftYaHei, Microsoft YaHei"><tspan x="-24.111" y="0">2-21</tspan></text>
    <text id="_2-22" data-name="2-22" transform="translate(224 307)" fill="#b4bcc7" font-size="11" font-family="MicrosoftYaHei, Microsoft YaHei"><tspan x="-24.111" y="0">2-22</tspan></text>
    <text id="_2-23" data-name="2-23" transform="translate(280 307)" fill="#b4bcc7" font-size="11" font-family="MicrosoftYaHei, Microsoft YaHei"><tspan x="-24.111" y="0">2-23</tspan></text>
    <text id="_2-24" data-name="2-24" transform="translate(336 307)" fill="#b4bcc7" font-size="11" font-family="MicrosoftYaHei, Microsoft YaHei"><tspan x="-24.111" y="0">2-24</tspan></text>
    <path id="路径_17719" data-name="路径 17719" d="M1254.511,10607.643l54.51-34.107,55.739,20.357,56.537-42.05" transform="translate(-1095.952 -10349.992)" fill="none" stroke="#2463f4" stroke-width="2"/>
    <path id="路径_17720" data-name="路径 17720" d="M1254.669,10629.709l54.544-9.592,55.921,9.592,56.836-23.244" transform="translate(-1095.952 -10358.459)" fill="none" stroke="#3ce4da" stroke-width="2"/>
    <g id="椭圆_1125" data-name="椭圆 1125" transform="translate(154 253)" fill="#fff" stroke="#2463f4" stroke-width="2">
      <circle cx="4.5" cy="4.5" r="4.5" stroke="none"/>
      <circle cx="4.5" cy="4.5" r="3.5" fill="none"/>
    </g>
    <g id="椭圆_1129" data-name="椭圆 1129" transform="translate(154 267)" fill="#fff" stroke="#3ce4da" stroke-width="2">
      <circle cx="4.5" cy="4.5" r="4.5" stroke="none"/>
      <circle cx="4.5" cy="4.5" r="3.5" fill="none"/>
    </g>
    <g id="椭圆_1130" data-name="椭圆 1130" transform="translate(264 266)" fill="#fff" stroke="#3ce4da" stroke-width="2">
      <circle cx="4.5" cy="4.5" r="4.5" stroke="none"/>
      <circle cx="4.5" cy="4.5" r="3.5" fill="none"/>
    </g>
    <g id="椭圆_1198" data-name="椭圆 1198" transform="translate(320 244)" fill="#fff" stroke="#3ce4da" stroke-width="2">
      <circle cx="4.5" cy="4.5" r="4.5" stroke="none"/>
      <circle cx="4.5" cy="4.5" r="3.5" fill="none"/>
    </g>
    <g id="椭圆_1132" data-name="椭圆 1132" transform="translate(208.5 257)" fill="#fff" stroke="#3ce4da" stroke-width="2">
      <circle cx="4.5" cy="4.5" r="4.5" stroke="none"/>
      <circle cx="4.5" cy="4.5" r="3.5" fill="none"/>
    </g>
    <g id="椭圆_1126" data-name="椭圆 1126" transform="translate(208.5 219)" fill="#fff" stroke="#2463f4" stroke-width="2">
      <circle cx="4.5" cy="4.5" r="4.5" stroke="none"/>
      <circle cx="4.5" cy="4.5" r="3.5" fill="none"/>
    </g>
    <g id="椭圆_1127" data-name="椭圆 1127" transform="translate(264 239)" fill="#fff" stroke="#2463f4" stroke-width="2">
      <circle cx="4.5" cy="4.5" r="4.5" stroke="none"/>
      <circle cx="4.5" cy="4.5" r="3.5" fill="none"/>
    </g>
    <g id="椭圆_1199" data-name="椭圆 1199" transform="translate(320 198)" fill="#fff" stroke="#2463f4" stroke-width="2">
      <circle cx="4.5" cy="4.5" r="4.5" stroke="none"/>
      <circle cx="4.5" cy="4.5" r="3.5" fill="none"/>
    </g>
  </g>
</svg>
