
<svg xmlns="http://www.w3.org/2000/svg" width="296" height="167" viewBox="0 0 296 167">
  <g id="组_14665" data-name="组 14665" transform="translate(-89 -161)">
    <path id="矩形_7134" data-name="矩形 7134" d="M12,0H284a12,12,0,0,1,12,12V167a0,0,0,0,1,0,0H0a0,0,0,0,1,0,0V12A12,12,0,0,1,12,0Z" transform="translate(89 161)" fill="#fdfdfd"/>
    <g id="组_11095" data-name="组 11095" transform="translate(-1019.893 -531.648)">
      <path id="路径_17706" data-name="路径 17706" d="M53.93,245.93c-.421-2.947-2.21-4.526-5.263-4.526a4.76,4.76,0,0,0-2.842.737,6.894,6.894,0,0,0-1.894,2,7.8,7.8,0,0,0-1.053,2.736,14,14,0,0,0-.315,2.947,13.026,13.026,0,0,0,.315,2.842,9.71,9.71,0,0,0,.947,2.632,4.679,4.679,0,0,0,1.894,1.894,4.76,4.76,0,0,0,2.842.737,5.489,5.489,0,0,0,4-1.474,7.074,7.074,0,0,0,1.79-3.893H61.3a11.479,11.479,0,0,1-4,7.894,13.142,13.142,0,0,1-8.526,2.736,14.36,14.36,0,0,1-5.368-.946,11.694,11.694,0,0,1-4.21-2.737,12.39,12.39,0,0,1-2.631-4.21,15.158,15.158,0,0,1-.948-5.368,18.784,18.784,0,0,1,.842-5.578,13.827,13.827,0,0,1,2.631-4.526,12.152,12.152,0,0,1,4.211-2.947,14.028,14.028,0,0,1,5.684-1.053,14.972,14.972,0,0,1,4.421.631,11.144,11.144,0,0,1,6.525,4.948,9.811,9.811,0,0,1,1.263,4.315H53.93ZM65.3,226.773h7.157v36H65.3Zm19.156,22.945a14.334,14.334,0,0,0,.315,3.053,7.292,7.292,0,0,0,1.053,2.632,5.428,5.428,0,0,0,1.9,1.894,6.519,6.519,0,0,0,3.051.737,5.479,5.479,0,0,0,3.053-.737,5.754,5.754,0,0,0,2-1.894,8.138,8.138,0,0,0,1.052-2.632,14.893,14.893,0,0,0,0-6.1,6.6,6.6,0,0,0-1.052-2.632,6.91,6.91,0,0,0-2-1.894,5.7,5.7,0,0,0-3.053-.737,5.375,5.375,0,0,0-4.947,2.631,7.291,7.291,0,0,0-1.053,2.632,15.884,15.884,0,0,0-.315,3.051Zm-7.157,0a16.1,16.1,0,0,1,.947-5.683,12.1,12.1,0,0,1,2.737-4.315,12.651,12.651,0,0,1,4.21-2.736,16.893,16.893,0,0,1,11.157,0,13.112,13.112,0,0,1,4.315,2.736,10.824,10.824,0,0,1,2.736,4.315,17.519,17.519,0,0,1,0,11.368,11.693,11.693,0,0,1-7.051,7.051,16.9,16.9,0,0,1-11.157,0,11.673,11.673,0,0,1-4.21-2.736,12.114,12.114,0,0,1-2.737-4.315,16.1,16.1,0,0,1-.947-5.685ZM133.5,262.77H126.66v-3.684h-.105a8.18,8.18,0,0,1-3.579,3.262,11.3,11.3,0,0,1-4.421,1.053,12.444,12.444,0,0,1-4.737-.737,7.855,7.855,0,0,1-2.947-2.1,8.892,8.892,0,0,1-1.473-3.369,19.732,19.732,0,0,1-.421-4.421v-16.1h7.157V251.4a8.71,8.71,0,0,0,1.053,4.843,3.9,3.9,0,0,0,3.579,1.578,4.839,4.839,0,0,0,4.21-1.789q1.263-1.738,1.263-5.684V236.668H133.4v26.1h.106Zm23.892-13.052a16.1,16.1,0,0,0-.315-3.157,7.286,7.286,0,0,0-1.053-2.632,8.082,8.082,0,0,0-1.894-1.894,6.082,6.082,0,0,0-2.947-.737,5.113,5.113,0,0,0-2.947.737,4.132,4.132,0,0,0-1.9,1.894,7.271,7.271,0,0,0-1.052,2.632,14.565,14.565,0,0,0-.316,3.157,15.007,15.007,0,0,0,.316,3.052,7.953,7.953,0,0,0,1.157,2.737,4.939,4.939,0,0,0,2,1.894,5.218,5.218,0,0,0,2.843.737,5.116,5.116,0,0,0,2.947-.737,4.137,4.137,0,0,0,1.894-1.894,10.611,10.611,0,0,0,1.053-2.737,27.953,27.953,0,0,0,.21-3.052Zm.105,9.789a8.462,8.462,0,0,1-3.368,3.053,11.043,11.043,0,0,1-4.631.948,11.3,11.3,0,0,1-5.157-1.158,10.43,10.43,0,0,1-3.684-3.052,14.49,14.49,0,0,1-2.21-4.421,17.673,17.673,0,0,1-.737-5.262,15.875,15.875,0,0,1,.737-5.053,13.925,13.925,0,0,1,2.21-4.315,12.553,12.553,0,0,1,3.579-3.053,11.165,11.165,0,0,1,5.052-1.157,10.421,10.421,0,0,1,4.421.948,6.825,6.825,0,0,1,3.263,2.947h.105V226.772h7.157v36H157.5v-3.263Zm0,0" transform="translate(1131.13 521.933)" fill="#2e5ef3"/>
      <path id="路径_17707" data-name="路径 17707" d="M723.7,418.343a2.314,2.314,0,0,0-.842-1.579,2.92,2.92,0,0,0-1.684-.526,4.621,4.621,0,0,0-1.053.211,1.529,1.529,0,0,0-.947.631,3.617,3.617,0,0,0-.737,1.263,5.9,5.9,0,0,0-.316,2.1,6.139,6.139,0,0,0,.211,1.368,6.425,6.425,0,0,0,.526,1.264,2.491,2.491,0,0,0,.948.842,2.923,2.923,0,0,0,1.368.315,2.48,2.48,0,0,0,1.79-.631,3.175,3.175,0,0,0,.841-1.894h2.421a5.186,5.186,0,0,1-1.684,3.368,5.111,5.111,0,0,1-3.473,1.157,5.351,5.351,0,0,1-2.316-.42,5.075,5.075,0,0,1-1.683-1.263,6.172,6.172,0,0,1-1.053-1.79,8.641,8.641,0,0,1,0-4.632,4.2,4.2,0,0,1,1.053-1.894,6.411,6.411,0,0,1,1.683-1.263,5.844,5.844,0,0,1,2.421-.421,11.582,11.582,0,0,1,1.894.211,7.231,7.231,0,0,1,1.579.737,3.954,3.954,0,0,1,1.684,3.052H723.7Zm4.526-8h2.42v15.472h-2.42Zm10.315,15.788a6.165,6.165,0,0,1-2.421-.422,5.506,5.506,0,0,1-1.79-1.263,4.2,4.2,0,0,1-1.052-1.9,8.281,8.281,0,0,1-.422-2.42,5.345,5.345,0,0,1,.422-2.315,4.888,4.888,0,0,1,2.842-3.158,5.859,5.859,0,0,1,2.421-.421,6.184,6.184,0,0,1,2.42.421,5.512,5.512,0,0,1,1.79,1.263,4.213,4.213,0,0,1,1.052,1.9,8.2,8.2,0,0,1,.422,2.315,6.161,6.161,0,0,1-.422,2.42,4.887,4.887,0,0,1-2.842,3.158A8.946,8.946,0,0,1,738.543,426.132Zm0-2a3.372,3.372,0,0,0,1.473-.315,2.066,2.066,0,0,0,.947-.947,6.435,6.435,0,0,0,.527-1.263,6.267,6.267,0,0,0,.21-1.474,7.158,7.158,0,0,0-.21-1.473,3.508,3.508,0,0,0-.527-1.264,8,8,0,0,0-.947-.946,3.053,3.053,0,0,0-1.473-.316,3.351,3.351,0,0,0-1.473.316,2.061,2.061,0,0,0-.948.946,4.527,4.527,0,0,0-.526,1.264,5.258,5.258,0,0,0,0,2.947,6.37,6.37,0,0,0,.526,1.263c.211.421.631.631.948.947A3.06,3.06,0,0,0,738.543,424.131Zm17.472,1.684h-2.421v-1.579a3.415,3.415,0,0,1-1.368,1.368,3.873,3.873,0,0,1-1.79.527,3.948,3.948,0,0,1-3.157-1.053,4.832,4.832,0,0,1-.948-3.263v-7.051h2.421V421.5a3.614,3.614,0,0,0,.526,2.1,2.144,2.144,0,0,0,1.579.631,3.917,3.917,0,0,0,1.263-.211,5.78,5.78,0,0,0,.842-.631,1.887,1.887,0,0,0,.421-.947,4.719,4.719,0,0,0,.105-1.264v-6.525h2.421v11.157Zm13.157,0h-2.316v-1.474a2.672,2.672,0,0,1-1.473,1.368,4.263,4.263,0,0,1-2,.422,5.345,5.345,0,0,1-2.316-.422,6.427,6.427,0,0,1-1.684-1.263,5.336,5.336,0,0,1-.947-1.9,8.2,8.2,0,0,1-.316-2.314,6.589,6.589,0,0,1,.421-2.632,5.746,5.746,0,0,1,1.053-1.789,3.233,3.233,0,0,1,1.579-1.053,5.34,5.34,0,0,1,1.79-.316,3.566,3.566,0,0,1,1.052.106c.316.105.737.211,1.053.316a4.257,4.257,0,0,1,.947.526,2.819,2.819,0,0,1,.737.842v-5.683h2.421v15.261Zm-8.63-5.474a5.382,5.382,0,0,0,.21,1.369,6.446,6.446,0,0,0,.527,1.263,2.489,2.489,0,0,0,.948.842,2.917,2.917,0,0,0,1.368.315,2.64,2.64,0,0,0,1.368-.315,2.073,2.073,0,0,0,.948-.947,6.493,6.493,0,0,0,.526-1.263,6.218,6.218,0,0,0,.211-1.474,4.9,4.9,0,0,0-.842-2.947,2.521,2.521,0,0,0-2.21-1.053,3.35,3.35,0,0,0-1.473.316,2.061,2.061,0,0,0-.948.946,6.372,6.372,0,0,0-.526,1.264A8.493,8.493,0,0,0,760.541,420.342Zm-33.892,24.209h-.105l-2-8.315h-2.526l-2,8.315h-.105l-2.21-8.315h-2.632l3.474,11.157h2.631l2.1-8.315,2.1,8.315h2.526l3.473-11.157H728.86Zm24.734-8.631a3.108,3.108,0,0,0-1.052.21,2.778,2.778,0,0,0-.948.526,6.093,6.093,0,0,0-.737.842,6.271,6.271,0,0,0-.422.842v-2.105H745.91v11.157h2.42v-5.368a8.191,8.191,0,0,1,.211-1.685,5.7,5.7,0,0,1,.631-1.157,5.785,5.785,0,0,1,.948-.737,2.081,2.081,0,0,1,1.157-.21h.527a.949.949,0,0,1,.526.105v-2.421h-.947Zm10.1-4V437.6a5.274,5.274,0,0,0-.738-.842,4.267,4.267,0,0,0-.947-.526c-.316-.105-.631-.211-1.053-.316a3.574,3.574,0,0,0-1.052-.105,5.346,5.346,0,0,0-1.79.316,3.79,3.79,0,0,0-1.579,1.053,3.856,3.856,0,0,0-1.052,1.789,6.572,6.572,0,0,0-.422,2.632,8.2,8.2,0,0,0,.316,2.315,5.339,5.339,0,0,0,.947,1.9,4.191,4.191,0,0,0,1.684,1.263,5.354,5.354,0,0,0,2.316.422,4.267,4.267,0,0,0,2-.422,3.1,3.1,0,0,0,1.473-1.368v1.473h2.316V431.71h-2.42v.211Zm-.105,11.367a6.444,6.444,0,0,1-.527,1.264,2.706,2.706,0,0,1-.947.946,3.119,3.119,0,0,1-2.737,0,2.47,2.47,0,0,1-.947-.842,3.508,3.508,0,0,1-.527-1.263,6.157,6.157,0,0,1-.21-1.368,7.105,7.105,0,0,1,.21-1.474,3.506,3.506,0,0,1,.527-1.263,2.061,2.061,0,0,1,.947-.947,3.055,3.055,0,0,1,1.473-.316,2.519,2.519,0,0,1,2.21,1.053,4.9,4.9,0,0,1,.842,2.947,10.914,10.914,0,0,0-.315,1.262Zm-18-3.789a4.9,4.9,0,0,0-2.842-3.157,7.162,7.162,0,0,0-4.842,0,5.493,5.493,0,0,0-1.789,1.263,4.215,4.215,0,0,0-1.053,1.894,8.236,8.236,0,0,0-.421,2.316,6.184,6.184,0,0,0,.421,2.421,4.894,4.894,0,0,0,2.842,3.158,7.178,7.178,0,0,0,4.842,0,5.5,5.5,0,0,0,1.789-1.263,4.21,4.21,0,0,0,1.053-1.9,8.28,8.28,0,0,0,.421-2.421A12.964,12.964,0,0,0,743.384,439.5Zm-2.316,3.789a6.453,6.453,0,0,1-.526,1.264c-.211.421-.631.631-.948.946a3.589,3.589,0,0,1-2.947,0,2.066,2.066,0,0,1-.948-.946,6.509,6.509,0,0,1-.526-1.264,6.2,6.2,0,0,1-.211-1.474,7.112,7.112,0,0,1,.211-1.473,3.527,3.527,0,0,1,.526-1.263,8.117,8.117,0,0,1,.948-.947,3.6,3.6,0,0,1,2.947,0,2.068,2.068,0,0,1,.948.947,6.439,6.439,0,0,1,.526,1.263,6.216,6.216,0,0,1,.211,1.473A7.062,7.062,0,0,1,741.068,443.287Zm0,0" transform="translate(586.715 337.31)" fill="#3be4df"/>
      <path id="路径_17708" data-name="路径 17708" d="M425.389,752.841h3.473L431.81,764h.1l2.843-11.157h3.368L440.755,764h.105l3.053-11.157h3.369l-4.631,14.945h-3.369l-2.736-11.052h-.105L433.7,767.786h-3.473Zm30.629,15.367a7.7,7.7,0,0,1-3.158-.631A7.5,7.5,0,0,1,450.544,766a6.681,6.681,0,0,1-1.473-2.526,9.739,9.739,0,0,1,0-6.315,7.6,7.6,0,0,1,1.473-2.526,5.7,5.7,0,0,1,2.316-1.579,8.211,8.211,0,0,1,6.315,0,7.509,7.509,0,0,1,2.316,1.579,5.947,5.947,0,0,1,1.473,2.526,9.721,9.721,0,0,1,0,6.315A7.591,7.591,0,0,1,461.49,766a5.705,5.705,0,0,1-2.316,1.579A7.032,7.032,0,0,1,456.018,768.208Zm0-2.632a3.6,3.6,0,0,0,1.894-.42,5.163,5.163,0,0,0,1.368-1.263,4.841,4.841,0,0,0,.737-1.684,5.82,5.82,0,0,0,.211-1.894,11.578,11.578,0,0,0-.211-1.9,8.119,8.119,0,0,0-.737-1.685,3,3,0,0,0-1.368-1.157,4.478,4.478,0,0,0-3.789,0,7.3,7.3,0,0,0-1.368,1.157,3.091,3.091,0,0,0-.737,1.685,5.823,5.823,0,0,0-.211,1.9,11.583,11.583,0,0,0,.211,1.894,8.222,8.222,0,0,0,.737,1.684,3.208,3.208,0,0,0,1.368,1.263,3.608,3.608,0,0,0,1.9.42Zm10.315-12.735h3.052v2.842h.105a3.871,3.871,0,0,1,.526-1.158,4.981,4.981,0,0,1,1.052-1.052,7.836,7.836,0,0,1,1.264-.737,3.7,3.7,0,0,1,1.473-.316h.842a.633.633,0,0,1,.421.105v3.158c-.211,0-.421-.105-.737-.105H473.6a4.217,4.217,0,0,0-1.579.316,2.863,2.863,0,0,0-1.263.946,5.591,5.591,0,0,0-.842,1.579,6.99,6.99,0,0,0-.316,2.21v7.053h-3.262V752.841Zm24.208,14.945h-3.158v-2h-.105a4.132,4.132,0,0,1-1.894,1.9,5.9,5.9,0,0,1-2.631.526,6.649,6.649,0,0,1-5.263-2.315,7.124,7.124,0,0,1-1.264-2.526,9.983,9.983,0,0,1-.421-3.157,10.99,10.99,0,0,1,.526-3.474,6.253,6.253,0,0,1,1.473-2.42,5.6,5.6,0,0,1,2.1-1.368,6.165,6.165,0,0,1,2.421-.422,5.989,5.989,0,0,1,1.368.105,5.237,5.237,0,0,1,1.368.421,7.947,7.947,0,0,1,1.264.737,2.989,2.989,0,0,1,.947,1.053h.105v-7.684h3.263v20.63Zm-11.472-7.263a11.59,11.59,0,0,0,.21,1.9,8.2,8.2,0,0,0,.737,1.684,3.347,3.347,0,0,0,1.264,1.158A3.684,3.684,0,0,0,486.331,764a4.857,4.857,0,0,0,.737-1.685,5.849,5.849,0,0,0,.21-1.9,6.126,6.126,0,0,0-1.157-3.893,3.655,3.655,0,0,0-3.053-1.368,4.348,4.348,0,0,0-2,.526,3.623,3.623,0,0,0-1.263,1.263,8.087,8.087,0,0,0-.737,1.684v1.894Zm0,0" transform="translate(818.824 67.438)" fill="#fba675"/>
      <path id="路径_17709" data-name="路径 17709" d="M152.54,659.12H148.33l-2.631-10h-.105l-2.526,10h-4.21l-4.736-14.946h4.315l2.736,10.1h.105l2.525-10.1h4l2.526,10.1h.1l2.737-10.1h4.21L152.54,659.12Zm10.1-7.368a10.356,10.356,0,0,0,.211,1.789,4.915,4.915,0,0,0,.631,1.579,2.794,2.794,0,0,0,1.157,1.053,2.872,2.872,0,0,0,1.684.421,3.229,3.229,0,0,0,1.79-.421,5.514,5.514,0,0,0,1.157-1.053,3.556,3.556,0,0,0,.631-1.579,9.256,9.256,0,0,0,.211-1.789,10.367,10.367,0,0,0-.211-1.79,4.957,4.957,0,0,0-.631-1.579,2.242,2.242,0,0,0-1.157-1.052,3.009,3.009,0,0,0-1.79-.422,2.667,2.667,0,0,0-1.684.422,5.493,5.493,0,0,0-1.157,1.052,3.55,3.55,0,0,0-.631,1.579A4.922,4.922,0,0,0,162.645,651.752Zm-4.106,0a10.577,10.577,0,0,1,.527-3.263,6.816,6.816,0,0,1,4-4.1,7.661,7.661,0,0,1,3.158-.527,9.913,9.913,0,0,1,3.158.527,8.027,8.027,0,0,1,2.421,1.579,7.405,7.405,0,0,1,1.578,2.525,8.493,8.493,0,0,1,.527,3.263,10.58,10.58,0,0,1-.527,3.262,5.393,5.393,0,0,1-1.578,2.421,9.635,9.635,0,0,1-2.421,1.579,9.742,9.742,0,0,1-6.316,0,5.406,5.406,0,0,1-2.42-1.579,8,8,0,0,1-1.579-2.421A11.117,11.117,0,0,1,158.539,651.752Zm18.1-7.473h3.895v2.736h.105a7.777,7.777,0,0,1,.737-1.263,5.5,5.5,0,0,1,1.157-1.053,3.263,3.263,0,0,1,1.368-.631,7.083,7.083,0,0,1,1.473-.211,2.317,2.317,0,0,1,.842.105v3.789c-.211,0-.421-.106-.737-.106h-.737a3.6,3.6,0,0,0-1.894.422,3.089,3.089,0,0,0-1.264,1.052,3.706,3.706,0,0,0-.631,1.473,9.446,9.446,0,0,0-.211,1.9v6.736h-4.1V644.279Zm21.788,7.368a10.369,10.369,0,0,0-.211-1.79,3.7,3.7,0,0,0-.631-1.473,4.981,4.981,0,0,0-1.053-1.052,3.571,3.571,0,0,0-3.368,0,5.5,5.5,0,0,0-1.158,1.052,3.7,3.7,0,0,0-.631,1.473,7.261,7.261,0,0,0,0,3.474,4.972,4.972,0,0,0,.631,1.578,2.8,2.8,0,0,0,1.158,1.053,2.532,2.532,0,0,0,1.578.421,2.866,2.866,0,0,0,1.684-.421,3.344,3.344,0,0,0,1.053-1.053,3.51,3.51,0,0,0,.526-1.578A2.868,2.868,0,0,0,198.431,651.647Zm.1,5.578a4.682,4.682,0,0,1-2,1.79,6.91,6.91,0,0,1-2.631.526,6.412,6.412,0,0,1-2.947-.631,5.806,5.806,0,0,1-2.106-1.79,9.474,9.474,0,0,1-1.263-2.526,9.747,9.747,0,0,1-.421-3.052,9.091,9.091,0,0,1,.421-2.947,7.522,7.522,0,0,1,1.263-2.422,5.546,5.546,0,0,1,2.106-1.683,6.257,6.257,0,0,1,2.842-.632,7.228,7.228,0,0,1,2.525.527,4.25,4.25,0,0,1,1.9,1.684h.105V638.6h4.1V659.12h-3.895v-1.9Zm25.156-7.683a2.758,2.758,0,0,0-3.052-2.526,3.084,3.084,0,0,0-1.683.422,2.8,2.8,0,0,0-1.053,1.158,3.57,3.57,0,0,0-.631,1.579,9.2,9.2,0,0,0-.211,1.684,10.481,10.481,0,0,0,.211,1.684,6.087,6.087,0,0,0,.526,1.473,3.633,3.633,0,0,0,1.053,1.158,2.538,2.538,0,0,0,1.579.421,3.469,3.469,0,0,0,2.316-.842,3.576,3.576,0,0,0,.947-2.21h4a6.974,6.974,0,0,1-2.316,4.526,7.434,7.434,0,0,1-4.841,1.579,9.283,9.283,0,0,1-3.052-.526,9.627,9.627,0,0,1-2.421-1.579,8.043,8.043,0,0,1-1.579-2.421,9.792,9.792,0,0,1-.526-3.052,11.155,11.155,0,0,1,.526-3.262,6.8,6.8,0,0,1,3.895-4.211,7.851,7.851,0,0,1,3.262-.632,10.373,10.373,0,0,1,2.527.316,7.165,7.165,0,0,1,2.21,1.052,5.254,5.254,0,0,1,1.579,1.79,6.444,6.444,0,0,1,.737,2.526h-4v-.106Zm6.421-10.946h4.1V659.12h-4.1Zm11.052,13.156a10.455,10.455,0,0,0,.21,1.789,4.942,4.942,0,0,0,.632,1.579,2.8,2.8,0,0,0,1.157,1.053,2.872,2.872,0,0,0,1.684.421,3.225,3.225,0,0,0,1.789-.421,5.5,5.5,0,0,0,1.158-1.053,3.568,3.568,0,0,0,.631-1.579,7.7,7.7,0,0,0,0-3.579,4.166,4.166,0,0,0-.631-1.579,2.8,2.8,0,0,0-1.158-1.052,4.472,4.472,0,0,0-1.789-.422,2.666,2.666,0,0,0-1.684.422,5.5,5.5,0,0,0-1.157,1.052,3.565,3.565,0,0,0-.632,1.579A4.945,4.945,0,0,0,241.164,651.752Zm-4.106,0a10.577,10.577,0,0,1,.527-3.263,6.81,6.81,0,0,1,4-4.1,7.659,7.659,0,0,1,3.158-.527,9.918,9.918,0,0,1,3.158.527,8.022,8.022,0,0,1,2.42,1.579,7.407,7.407,0,0,1,1.579,2.525,8.487,8.487,0,0,1,.526,3.263,10.572,10.572,0,0,1-.526,3.262,5.393,5.393,0,0,1-1.579,2.421,8.06,8.06,0,0,1-2.42,1.579,9.742,9.742,0,0,1-6.316,0,5.408,5.408,0,0,1-2.421-1.579,8.022,8.022,0,0,1-1.578-2.421A8.483,8.483,0,0,1,237.058,651.752Zm32.1,7.368h-3.895v-2.1h-.105a4.935,4.935,0,0,1-2,1.894,5.467,5.467,0,0,1-2.527.526,7.143,7.143,0,0,1-2.736-.42,4.2,4.2,0,0,1-1.684-1.263,3.909,3.909,0,0,1-.842-1.9,17.612,17.612,0,0,1-.21-2.525v-9.158h4.1v8.421a5.983,5.983,0,0,0,.526,2.736,2.193,2.193,0,0,0,2,.947,2.882,2.882,0,0,0,2.421-.947,5.344,5.344,0,0,0,.737-3.263v-7.788h4.1V659.12Zm13.682-7.473a10.471,10.471,0,0,0-.21-1.79,3.686,3.686,0,0,0-.632-1.473,4.973,4.973,0,0,0-1.052-1.052,3.573,3.573,0,0,0-3.369,0,5.528,5.528,0,0,0-1.157,1.052,3.691,3.691,0,0,0-.631,1.473,7.261,7.261,0,0,0,0,3.474,4.954,4.954,0,0,0,.631,1.578,2.8,2.8,0,0,0,1.157,1.053,2.539,2.539,0,0,0,1.579.421,2.868,2.868,0,0,0,1.684-.421,3.355,3.355,0,0,0,1.053-1.053,3.506,3.506,0,0,0,.526-1.578,2.877,2.877,0,0,0,.42-1.684Zm0,5.578a4.682,4.682,0,0,1-2,1.79,5.627,5.627,0,0,1-2.631.526,6.412,6.412,0,0,1-2.947-.631,5.8,5.8,0,0,1-2.106-1.79,9.475,9.475,0,0,1-1.263-2.526,9.746,9.746,0,0,1-.421-3.052,9.09,9.09,0,0,1,.421-2.947,7.523,7.523,0,0,1,1.263-2.422,5.546,5.546,0,0,1,2.106-1.683,6.256,6.256,0,0,1,2.842-.632,7.227,7.227,0,0,1,2.525.527,4.25,4.25,0,0,1,1.9,1.684h.105V638.6h4.1V659.12h-3.895v-1.9Zm0,0" transform="translate(1052.203 154.422)" fill="#2e5ef3"/>
      <path id="路径_17710" data-name="路径 17710" d="M152.54,659.12H148.33l-2.631-10h-.105l-2.526,10h-4.21l-4.736-14.946h4.315l2.736,10.1h.105l2.525-10.1h4l2.526,10.1h.1l2.737-10.1h4.21L152.54,659.12Zm10.1-7.368a10.356,10.356,0,0,0,.211,1.789,4.915,4.915,0,0,0,.631,1.579,2.794,2.794,0,0,0,1.157,1.053,2.872,2.872,0,0,0,1.684.421,3.229,3.229,0,0,0,1.79-.421,5.514,5.514,0,0,0,1.157-1.053,3.556,3.556,0,0,0,.631-1.579,9.256,9.256,0,0,0,.211-1.789,10.367,10.367,0,0,0-.211-1.79,4.957,4.957,0,0,0-.631-1.579,2.242,2.242,0,0,0-1.157-1.052,3.009,3.009,0,0,0-1.79-.422,2.667,2.667,0,0,0-1.684.422,5.493,5.493,0,0,0-1.157,1.052,3.55,3.55,0,0,0-.631,1.579A4.922,4.922,0,0,0,162.645,651.752Zm-4.106,0a10.577,10.577,0,0,1,.527-3.263,6.816,6.816,0,0,1,4-4.1,7.661,7.661,0,0,1,3.158-.527,9.913,9.913,0,0,1,3.158.527,8.027,8.027,0,0,1,2.421,1.579,7.405,7.405,0,0,1,1.578,2.525,8.493,8.493,0,0,1,.527,3.263,10.58,10.58,0,0,1-.527,3.262,5.393,5.393,0,0,1-1.578,2.421,9.635,9.635,0,0,1-2.421,1.579,9.742,9.742,0,0,1-6.316,0,5.406,5.406,0,0,1-2.42-1.579,8,8,0,0,1-1.579-2.421A11.117,11.117,0,0,1,158.539,651.752Zm18.1-7.473h3.895v2.736h.105a7.777,7.777,0,0,1,.737-1.263,5.5,5.5,0,0,1,1.157-1.053,3.263,3.263,0,0,1,1.368-.631,7.083,7.083,0,0,1,1.473-.211,2.317,2.317,0,0,1,.842.105v3.789c-.211,0-.421-.106-.737-.106h-.737a3.6,3.6,0,0,0-1.894.422,3.089,3.089,0,0,0-1.264,1.052,3.706,3.706,0,0,0-.631,1.473,9.446,9.446,0,0,0-.211,1.9v6.736h-4.1V644.279Zm21.788,7.368a10.369,10.369,0,0,0-.211-1.79,3.7,3.7,0,0,0-.631-1.473,4.981,4.981,0,0,0-1.053-1.052,3.571,3.571,0,0,0-3.368,0,5.5,5.5,0,0,0-1.158,1.052,3.7,3.7,0,0,0-.631,1.473,7.261,7.261,0,0,0,0,3.474,4.972,4.972,0,0,0,.631,1.578,2.8,2.8,0,0,0,1.158,1.053,2.532,2.532,0,0,0,1.578.421,2.866,2.866,0,0,0,1.684-.421,3.344,3.344,0,0,0,1.053-1.053,3.51,3.51,0,0,0,.526-1.578A2.868,2.868,0,0,0,198.431,651.647Zm.1,5.578a4.682,4.682,0,0,1-2,1.79,6.91,6.91,0,0,1-2.631.526,6.412,6.412,0,0,1-2.947-.631,5.806,5.806,0,0,1-2.106-1.79,9.474,9.474,0,0,1-1.263-2.526,9.747,9.747,0,0,1-.421-3.052,9.091,9.091,0,0,1,.421-2.947,7.522,7.522,0,0,1,1.263-2.422,5.546,5.546,0,0,1,2.106-1.683,6.257,6.257,0,0,1,2.842-.632,7.228,7.228,0,0,1,2.525.527,4.25,4.25,0,0,1,1.9,1.684h.105V638.6h4.1V659.12h-3.895v-1.9Z" transform="translate(1072.544 84.553)" fill="#3be4df"/>
      <path id="路径_17712" data-name="路径 17712" d="M144.228,649.857h-2.31l-1.443-5.487h-.058l-1.386,5.487h-2.31l-2.6-8.2h2.368l1.5,5.544h.058l1.386-5.544h2.195l1.386,5.544h.057l1.5-5.544h2.31l-2.656,8.2Zm5.544-4.043a5.684,5.684,0,0,0,.116.982,2.7,2.7,0,0,0,.346.866,1.533,1.533,0,0,0,.635.578,1.575,1.575,0,0,0,.924.231,1.771,1.771,0,0,0,.982-.231,3.024,3.024,0,0,0,.635-.578,1.951,1.951,0,0,0,.346-.866,5.081,5.081,0,0,0,.116-.982,5.69,5.69,0,0,0-.116-.982,2.72,2.72,0,0,0-.346-.866,1.23,1.23,0,0,0-.635-.577,1.651,1.651,0,0,0-.982-.232,1.463,1.463,0,0,0-.924.232,3.014,3.014,0,0,0-.635.577,1.948,1.948,0,0,0-.346.866A2.7,2.7,0,0,0,149.772,645.814Zm-2.253,0a5.8,5.8,0,0,1,.289-1.79A3.74,3.74,0,0,1,150,641.772a4.2,4.2,0,0,1,1.733-.289,5.439,5.439,0,0,1,1.733.289,4.4,4.4,0,0,1,1.328.867,4.063,4.063,0,0,1,.866,1.386,4.66,4.66,0,0,1,.289,1.79,5.8,5.8,0,0,1-.289,1.79,2.959,2.959,0,0,1-.866,1.328,5.288,5.288,0,0,1-1.328.867,5.345,5.345,0,0,1-3.465,0,2.966,2.966,0,0,1-1.328-.867,4.389,4.389,0,0,1-.866-1.328A6.1,6.1,0,0,1,147.519,645.814Zm9.933-4.1h2.137v1.5h.058a4.267,4.267,0,0,1,.4-.693,3.018,3.018,0,0,1,.635-.578,1.79,1.79,0,0,1,.751-.346,3.885,3.885,0,0,1,.808-.116,1.271,1.271,0,0,1,.462.058v2.079c-.116,0-.231-.058-.4-.058h-.4a1.975,1.975,0,0,0-1.039.231,1.694,1.694,0,0,0-.693.577,2.034,2.034,0,0,0-.346.808,5.182,5.182,0,0,0-.116,1.04v3.7h-2.252v-8.2Zm11.955,4.043a5.688,5.688,0,0,0-.116-.982,2.032,2.032,0,0,0-.346-.808,2.735,2.735,0,0,0-.578-.577,1.959,1.959,0,0,0-1.848,0,3.02,3.02,0,0,0-.636.577,2.032,2.032,0,0,0-.346.808,3.983,3.983,0,0,0,0,1.906,2.729,2.729,0,0,0,.346.866,1.537,1.537,0,0,0,.636.578,1.389,1.389,0,0,0,.866.231,1.573,1.573,0,0,0,.924-.231,1.836,1.836,0,0,0,.578-.578,1.926,1.926,0,0,0,.288-.866A1.574,1.574,0,0,0,169.407,645.757Zm.057,3.06a2.568,2.568,0,0,1-1.1.982,3.791,3.791,0,0,1-1.443.289,3.519,3.519,0,0,1-1.617-.346,3.185,3.185,0,0,1-1.155-.982,5.2,5.2,0,0,1-.693-1.386,5.349,5.349,0,0,1-.231-1.675,4.988,4.988,0,0,1,.231-1.617,4.127,4.127,0,0,1,.693-1.329,3.043,3.043,0,0,1,1.155-.924,3.433,3.433,0,0,1,1.559-.347,3.966,3.966,0,0,1,1.386.289,2.332,2.332,0,0,1,1.04.924h.058v-4.1H171.6v11.261h-2.137Z" transform="translate(1023.776 95.026)" fill="#fba675"/>
      <path id="路径_17711" data-name="路径 17711" d="M147.636,653.655h-3.09l-1.93-7.337h-.077l-1.854,7.337H137.6l-3.475-10.966h3.166L139.3,650.1h.077l1.853-7.413h2.935l1.854,7.413h.077l2.008-7.413h3.089Zm7.414-5.406a7.6,7.6,0,0,0,.155,1.313,3.607,3.607,0,0,0,.463,1.158,2.05,2.05,0,0,0,.849.773,2.107,2.107,0,0,0,1.236.309,2.369,2.369,0,0,0,1.313-.309,4.049,4.049,0,0,0,.849-.773,2.61,2.61,0,0,0,.463-1.158,6.793,6.793,0,0,0,.155-1.313,7.609,7.609,0,0,0-.155-1.313,3.637,3.637,0,0,0-.463-1.158,1.645,1.645,0,0,0-.849-.772,2.208,2.208,0,0,0-1.313-.31,1.956,1.956,0,0,0-1.236.31,4.03,4.03,0,0,0-.849.772,2.6,2.6,0,0,0-.463,1.158A3.612,3.612,0,0,0,155.05,648.249Zm-3.012,0a7.761,7.761,0,0,1,.387-2.394,5,5,0,0,1,2.934-3.012,5.621,5.621,0,0,1,2.317-.387,7.272,7.272,0,0,1,2.317.387A5.89,5.89,0,0,1,161.768,644a5.434,5.434,0,0,1,1.158,1.853,6.232,6.232,0,0,1,.387,2.394,7.762,7.762,0,0,1-.387,2.393,3.957,3.957,0,0,1-1.158,1.776,7.072,7.072,0,0,1-1.776,1.159,7.149,7.149,0,0,1-4.634,0,3.967,3.967,0,0,1-1.776-1.159,5.87,5.87,0,0,1-1.158-1.776A8.156,8.156,0,0,1,152.037,648.249Zm13.283-5.483h2.858v2.007h.077a5.707,5.707,0,0,1,.541-.927,4.039,4.039,0,0,1,.849-.772,2.4,2.4,0,0,1,1-.463,5.2,5.2,0,0,1,1.081-.155,1.7,1.7,0,0,1,.618.077v2.78c-.155,0-.309-.077-.541-.077h-.541a2.641,2.641,0,0,0-1.39.309,2.267,2.267,0,0,0-.927.772,2.719,2.719,0,0,0-.463,1.081,6.932,6.932,0,0,0-.155,1.391v4.943h-3.012V642.766Zm15.986,5.406a7.609,7.609,0,0,0-.155-1.313,2.717,2.717,0,0,0-.463-1.081,3.656,3.656,0,0,0-.773-.772,2.62,2.62,0,0,0-2.471,0,4.036,4.036,0,0,0-.85.772,2.717,2.717,0,0,0-.463,1.081,5.327,5.327,0,0,0,0,2.549,3.648,3.648,0,0,0,.463,1.158,2.054,2.054,0,0,0,.85.773,1.858,1.858,0,0,0,1.158.309,2.1,2.1,0,0,0,1.236-.309,2.454,2.454,0,0,0,.773-.773,2.575,2.575,0,0,0,.386-1.158A2.1,2.1,0,0,0,181.307,648.172Zm.077,4.093a3.435,3.435,0,0,1-1.467,1.313,5.07,5.07,0,0,1-1.93.386,4.7,4.7,0,0,1-2.162-.463,4.26,4.26,0,0,1-1.545-1.313,6.951,6.951,0,0,1-.926-1.853,7.152,7.152,0,0,1-.309-2.24,6.671,6.671,0,0,1,.309-2.162,5.519,5.519,0,0,1,.926-1.777,4.069,4.069,0,0,1,1.545-1.235,4.591,4.591,0,0,1,2.085-.464,5.3,5.3,0,0,1,1.853.387,3.118,3.118,0,0,1,1.391,1.235h.077V638.6h3.012v15.059h-2.858Z" transform="translate(1148.604 88.362)" fill="#fba675"/>
    </g>
  </g>
</svg>